# xmcd
#
# Track frame offsets: 
#        150
#        20302
#        41144
#        57499
#        69956
#        96633
#        114827
#        134179
#        156329
#        175416
#        196256
#        215568
#        241802
#        264147
#        285569
#        308791
#
# Disc length: 4381 seconds
#
# Revision: 1
# Processed by: cddbd v1.5.2PL0 Copyright (c) Steve Scherf et al.
# Submitted via: ExactAudioCopy v0.99pb4
#
DISCID=ea111b10
DTITLE=Aretha Franklin - Greatest Moments
DYEAR=1900
DGENRE=Jazz
TTITLE0=A Rose Is Still A Rose
TTITLE1=A Deeper Love
TTITLE2=I Say A Little Prayer
TTITLE3=Baby I Love You
TTITLE4=Freeway Of Love
TTITLE5=I Knew You Were Waiting (For Me)
TTITLE6=Jump To It
TTITLE7=Sisters Are Doin' It For Themselves
TTITLE8=Willing To Forgive
TTITLE9=Doctor's Order
TTITLE10=Get It Right
TTITLE11=Jimmy Lee
TTITLE12=Ever Changing Times
TTITLE13=Who's Zoomin' Who
TTITLE14=(You Make Me Feel Like) A Natural Woman
TTITLE15=Chain Of Fools
EXTD=
EXTT0=
EXTT1=
EXTT2=
EXTT3=
EXTT4=
EXTT5=with George Michael
EXTT6=
EXTT7=with Eurythmics
EXTT8=
EXTT9=with Luther Vandross
EXTT10=
EXTT11=
EXTT12=with Michael McDonald
EXTT13=
EXTT14=with Bonnie Raitt and Gloria Estefan /live/
EXTT15=with Mariah Carey /live '98/
PLAYORDER=
